<svg xmlns="http://www.w3.org/2000/svg" width="684" height="275" viewBox="0 0 684 275" fill="none">
  <style>
    @keyframes cdotA { 0%,100% { opacity: 0.35; } 50% { opacity: 1; } }
    @keyframes cdotB { 0%,100% { opacity: 1;    } 50% { opacity: 0.45; } }
    path[fill="#94C8FA"]            { animation: cdotA 4.0s ease-in-out infinite; }
    path[fill="#73a7d9"]            { animation: cdotB 5.0s ease-in-out infinite; }
    path[fill]:nth-of-type(2n)      { animation-duration: 5.5s; animation-delay: 0.5s; }
    path[fill]:nth-of-type(3n)      { animation-duration: 4.5s; animation-delay: 1.2s; }
    path[fill]:nth-of-type(5n)      { animation-duration: 6.0s; animation-delay: 2.0s; }
    path[fill]:nth-of-type(7n)      { animation-duration: 4.8s; animation-delay: 0.8s; }
    path[fill]:nth-of-type(11n)     { animation-duration: 5.2s; animation-delay: 1.5s; }
    .traveler { fill: #EF7C00; filter: drop-shadow(0 0 4px rgba(239,124,0,0.85)); }
  </style>
  <g clip-path="url(#clip0_220_49)">
    <path d="M17.6106 111.078L47.9784 166.751" stroke="#94C8FA" stroke-width="0.427376" stroke-miterlimit="10"/>
    <path d="M260.517 284.002H234.934L155.256 137.509H88.8982L61.817 88.1317H22.9077" stroke="#94C8FA" stroke-width="0.427376" stroke-miterlimit="10"/>
    <path id="cp7" d="M260.517 289.546H185.287L115.359 161.207H76.2454L41.315 97.0283H22.9077" stroke="#94C8FA" stroke-width="1.80581" stroke-miterlimit="10"/>
    <path d="M260.517 295.09H179.851L109.924 166.751H68.9741" stroke="#94C8FA" stroke-width="0.427376" stroke-miterlimit="10"/>
    <path d="M260.517 300.628H174.422L104.494 172.295H68.9741" stroke="#94C8FA" stroke-width="0.427376" stroke-miterlimit="10"/>
    <path d="M260.517 306.172H168.986L99.0588 177.839H-11.9205" stroke="#94C8FA" stroke-width="0.427376" stroke-miterlimit="10"/>
    <path d="M149.899 306.172L101.13 216.579H-38.9956" stroke="#94C8FA" stroke-width="1.80581" stroke-miterlimit="10"/>
    <path d="M260.517 311.716H138.865L115.359 268.466H13.1863" stroke="#94C8FA" stroke-width="0.427376" stroke-miterlimit="10"/>
    <path d="M260.517 278.459H238.678L158.994 131.965H99.7751L75.7517 88.1317" stroke="#94C8FA" stroke-width="0.427376" stroke-miterlimit="10"/>
    <path d="M248.55 272.921H242.416L162.732 126.421H104.518L83.6011 88.1317" stroke="#94C8FA" stroke-width="0.427376" stroke-miterlimit="10"/>
    <path d="M260.505 244.034V223.959L180.056 76.8574H140.352L117.304 34.3425" stroke="#94C8FA" stroke-width="0.427376" stroke-miterlimit="10"/>
    <path d="M254.527 244.034V223.959L177.16 82.4975H127.874L111.856 53.0387H83.6011" stroke="#94C8FA" stroke-width="0.427376" stroke-miterlimit="10"/>
    <path id="cp8" d="M248.55 244.034V223.959L174.223 88.0414H124.256L108.521 59.2446H74.2048" stroke="#94C8FA" stroke-width="1.80581" stroke-miterlimit="10"/>
    <path d="M266.048 272.921V223.959L227.723 153.809V102.133L198.944 49.409V7.00244" stroke="#94C8FA" stroke-width="0.427376" stroke-miterlimit="10"/>
    <path d="M271.592 272.921V223.959L233.261 153.809V102.133L204.488 49.409V7.00244" stroke="#94C8FA" stroke-width="0.427376" stroke-miterlimit="10"/>
    <path d="M277.136 272.921V223.959L238.805 153.809V13.1361" stroke="#94C8FA" stroke-width="0.427376" stroke-miterlimit="10"/>
    <path id="cp10" d="M282.674 272.921V223.959L244.349 153.809V13.1361" stroke="#94C8FA" stroke-width="1.80581" stroke-miterlimit="10"/>
    <path d="M288.218 272.921V191.165L249.893 121.015V13.1361" stroke="#94C8FA" stroke-width="1.80581" stroke-miterlimit="10"/>
    <path d="M293.762 272.921V191.165L255.436 121.015V13.1361" stroke="#94C8FA" stroke-width="0.427376" stroke-miterlimit="10"/>
    <path d="M299.306 272.921V191.165L260.974 121.015V13.1361" stroke="#94C8FA" stroke-width="0.427376" stroke-miterlimit="10"/>
    <path id="cp9" d="M260.517 317.253H134.639L111.134 274.004H10.0442L-9.22979 238.761H-53.6107" stroke="#94C8FA" stroke-width="1.80581" stroke-miterlimit="10"/>
    <path d="M299.306 36.684V172.295" stroke="#94C8FA" stroke-width="0.427376" stroke-miterlimit="10"/>
    <path d="M293.762 36.684V172.295" stroke="#94C8FA" stroke-width="0.427376" stroke-miterlimit="10"/>
    <path d="M288.218 36.684V120.335" stroke="#94C8FA" stroke-width="0.427376" stroke-miterlimit="10"/>
    <path d="M282.674 36.684V120.335" stroke="#94C8FA" stroke-width="0.427376" stroke-miterlimit="10"/>
    <path d="M-38.9956 209.573H88.1157" stroke="#94C8FA" stroke-width="0.427376" stroke-miterlimit="10"/>
    <path d="M-38.9956 194.127H88.1157" stroke="#94C8FA" stroke-width="0.427376" stroke-miterlimit="10"/>
    <path d="M-38.9956 187.957H88.1157" stroke="#94C8FA" stroke-width="0.427376" stroke-miterlimit="10"/>
    <path d="M31.8223 123.821L55.2377 166.751" stroke="#94C8FA" stroke-width="0.427376" stroke-miterlimit="10"/>
    <path d="M17.2976 123.821L40.713 166.751" stroke="#94C8FA" stroke-width="0.427376" stroke-miterlimit="10"/>
    <path d="M10.0381 123.821L33.4535 166.751" stroke="#94C8FA" stroke-width="1.80581" stroke-miterlimit="10"/>
    <path d="M154.636 173.378L198.944 254.688" stroke="#94C8FA" stroke-width="0.427376" stroke-miterlimit="10"/>
    <path d="M167.481 12.3778L220.253 109.115" stroke="#94C8FA" stroke-width="0.427376" stroke-miterlimit="10"/>
    <path d="M160.529 12.3778L220.253 121.985" stroke="#94C8FA" stroke-width="1.80581" stroke-miterlimit="10"/>
    <path d="M154.636 184.46L198.944 265.776" stroke="#94C8FA" stroke-width="0.427376" stroke-miterlimit="10"/>
    <path d="M89.7587 186.314H86.4722V189.6H89.7587V186.314Z" fill="#73a7d9"/>
    <path d="M89.7587 192.478H86.4722V195.764H89.7587V192.478Z" fill="#73a7d9"/>
    <path d="M89.7587 207.923H86.4722V211.21H89.7587V207.923Z" fill="#73a7d9"/>
    <path d="M70.6172 170.651H67.3306V173.938H70.6172V170.651Z" fill="#73a7d9"/>
    <path d="M70.6172 165.108H67.3306V168.394H70.6172V165.108Z" fill="#73a7d9"/>
    <path d="M56.8808 165.108H53.5942V168.394H56.8808V165.108Z" fill="#73a7d9"/>
    <path d="M49.6157 165.108H46.3291V168.394H49.6157V165.108Z" fill="#94C8FA"/>
    <path d="M19.32 109.555H16.0334V112.841H19.32V109.555Z" fill="#94C8FA"/>
    <path d="M18.9529 122.195H15.6663V125.482H18.9529V122.195Z" fill="#94C8FA"/>
    <path d="M33.4716 122.195H30.1851V125.482H33.4716V122.195Z" fill="#94C8FA"/>
    <path d="M11.6933 122.195H8.40674V125.482H11.6933V122.195Z" fill="#94C8FA"/>
    <path d="M42.3561 165.108H39.0696V168.394H42.3561V165.108Z" fill="#94C8FA"/>
    <path d="M35.0967 165.108H31.8101V168.394H35.0967V165.108Z" fill="#94C8FA"/>
    <path d="M14.8295 266.823H11.543V270.11H14.8295V266.823Z" fill="#94C8FA"/>
    <path d="M24.5508 95.385H21.2642V98.6716H24.5508V95.385Z" fill="#73a7d9"/>
    <path d="M24.5508 86.4884H21.2642V89.775H24.5508V86.4884Z" fill="#94C8FA"/>
    <path d="M77.3889 86.4884H74.1023V89.775H77.3889V86.4884Z" fill="#73a7d9"/>
    <path d="M85.2382 86.4884H81.9517V89.775H85.2382V86.4884Z" fill="#73a7d9"/>
    <path d="M75.8481 57.6014H72.5615V60.888H75.8481V57.6014Z" fill="#94C8FA"/>
    <path d="M85.2382 51.3893H81.9517V54.6759H85.2382V51.3893Z" fill="#94C8FA"/>
    <path d="M118.947 32.6992H115.66V35.9858H118.947V32.6992Z" fill="#73a7d9"/>
    <path d="M200.588 5.35315H197.301V8.63973H200.588V5.35315Z" fill="#73a7d9"/>
    <path d="M169.124 10.7344H165.838V14.021H169.124V10.7344Z" fill="#73a7d9"/>
    <path d="M162.172 10.7344H158.885V14.021H162.172V10.7344Z" fill="#73a7d9"/>
    <path d="M221.896 107.472H218.61V110.759H221.896V107.472Z" fill="#73a7d9"/>
    <path d="M221.896 120.335H218.61V123.622H221.896V120.335Z" fill="#73a7d9"/>
    <path d="M206.132 5.35315H202.845V8.63973H206.132V5.35315Z" fill="#73a7d9"/>
    <path d="M284.317 35.0347H281.031V38.3212H284.317V35.0347Z" fill="#73a7d9"/>
    <path d="M284.317 118.692H281.031V121.979H284.317V118.692Z" fill="#94C8FA"/>
    <path d="M289.861 118.692H286.575V121.979H289.861V118.692Z" fill="#94C8FA"/>
    <path d="M300.949 170.651H297.662V173.938H300.949V170.651Z" fill="#94C8FA"/>
    <path d="M250.193 242.39H246.907V245.677H250.193V242.39Z" fill="#94C8FA"/>
    <path d="M154.636 175.021C153.727 175.021 152.992 174.287 152.992 173.378C152.992 172.469 153.727 171.735 154.636 171.735C155.545 171.735 156.279 172.469 156.279 173.378C156.279 174.287 155.545 175.021 154.636 175.021Z" fill="#94C8FA"/>
    <path d="M154.636 186.103C153.727 186.103 152.992 185.369 152.992 184.46C152.992 183.551 153.727 182.817 154.636 182.817C155.545 182.817 156.279 183.551 156.279 184.46C156.279 185.369 155.545 186.103 154.636 186.103Z" fill="#94C8FA"/>
    <path d="M198.944 267.419C198.035 267.419 197.301 266.685 197.301 265.776C197.301 264.867 198.035 264.132 198.944 264.132C199.853 264.132 200.588 264.867 200.588 265.776C200.588 266.685 199.853 267.419 198.944 267.419Z" fill="#94C8FA"/>
    <path d="M198.878 256.331C197.969 256.295 197.265 255.525 197.301 254.622C197.337 253.713 198.108 253.009 199.011 253.045C199.92 253.081 200.624 253.851 200.588 254.754C200.552 255.663 199.781 256.367 198.878 256.331Z" fill="#94C8FA"/>
    <path d="M256.171 242.39H252.884V245.677H256.171V242.39Z" fill="#94C8FA"/>
    <path d="M262.154 242.39H258.867V245.677H262.154V242.39Z" fill="#94C8FA"/>
    <path d="M250.193 271.271H246.907V274.558H250.193V271.271Z" fill="#94C8FA"/>
    <path d="M295.405 170.651H292.118V173.938H295.405V170.651Z" fill="#94C8FA"/>
    <path d="M289.861 35.0347H286.575V38.3212H289.861V35.0347Z" fill="#94C8FA"/>
    <path d="M295.405 35.0347H292.118V38.3212H295.405V35.0347Z" fill="#94C8FA"/>
    <path d="M300.949 35.0347H297.662V38.3212H300.949V35.0347Z" fill="#94C8FA"/>
    <path d="M240.448 11.4929H237.161V14.7795H240.448V11.4929Z" fill="#94C8FA"/>
    <path d="M245.992 11.4929H242.705V14.7795H245.992V11.4929Z" fill="#94C8FA"/>
    <path d="M251.536 11.4929H248.249V14.7795H251.536V11.4929Z" fill="#94C8FA"/>
    <path d="M257.073 11.4929H253.787V14.7795H257.073V11.4929Z" fill="#94C8FA"/>
    <path d="M262.617 11.4929H259.331V14.7795H262.617V11.4929Z" fill="#94C8FA"/>
    <path d="M240.448 5.94897H237.161V9.23556H240.448V5.94897Z" fill="#94C8FA"/>
    <path d="M245.992 5.94897H242.705V9.23556H245.992V5.94897Z" fill="#94C8FA"/>
    <path d="M251.536 5.94897H248.249V9.23556H251.536V5.94897Z" fill="#94C8FA"/>
    <path d="M257.073 5.94897H253.787V9.23556H257.073V5.94897Z" fill="#94C8FA"/>
    <path d="M262.617 5.94897H259.331V9.23556H262.617V5.94897Z" fill="#94C8FA"/>
    <path d="M217.177 277.851H220.464V274.564H217.177V277.851Z" fill="#94C8FA"/>
    <path d="M211.639 277.851H214.926V274.564H211.639V277.851Z" fill="#94C8FA"/>
    <path d="M206.095 277.851H209.382V274.564H206.095V277.851Z" fill="#94C8FA"/>
    <path d="M200.552 277.851H203.838V274.564H200.552V277.851Z" fill="#94C8FA"/>
    <path d="M195.008 277.851H198.294V274.564H195.008V277.851Z" fill="#94C8FA"/>
    <path d="M400.54 429.015L462.617 386.217C494.598 364.168 528.969 345.797 565.067 331.459L710.056 273.86" stroke="#94C8FA" stroke-width="2.02251" stroke-miterlimit="10"/>
    <path d="M453.721 392.351L471.093 364.331C484.552 342.613 503.405 324.754 525.815 312.48L588.483 278.164C600.329 271.675 612.819 266.432 625.749 262.513L696.404 241.102" stroke="#94C8FA" stroke-width="2.02251" stroke-miterlimit="10"/>
    <path d="M631.509 260.768L646.997 263.35C656.207 264.885 665.609 264.843 674.807 263.223L707.329 257.487" stroke="#94C8FA" stroke-width="0.674171" stroke-miterlimit="10"/>
    <path d="M512.554 320.69L521.649 306.93C535.921 285.333 556.056 268.256 579.682 257.68L620.999 239.194C638.426 231.399 656.821 225.975 675.685 223.074L682.746 221.985" stroke="#94C8FA" stroke-width="0.674171" stroke-miterlimit="10"/>
    <path id="cp1" d="M353.829 418.921L344.337 365.252C334.236 308.122 330.107 250.095 332.015 192.11L336.066 69.0984C336.867 44.756 350.29 22.5866 371.484 10.59" stroke="#94C8FA" stroke-width="2.02251" stroke-miterlimit="10"/>
    <path id="cp2" d="M332.322 183.021L366.807 87.331C378.43 55.0852 402.845 29.0634 434.296 15.4175" stroke="#94C8FA" stroke-width="2.02251" stroke-miterlimit="10"/>
    <path d="M359.439 107.773L409.719 62.3205L449.309 19.5588" stroke="#94C8FA" stroke-width="0.674171" stroke-miterlimit="10"/>
    <path d="M331.1 220.089L433.917 120.113C455.767 98.8643 482.066 82.7444 510.911 72.9147L538.046 63.6689" stroke="#94C8FA" stroke-width="0.674171" stroke-miterlimit="10"/>
    <path d="M409.719 143.642C411.513 115.189 424.479 88.6011 445.793 69.6702L462.732 51.8468C471.297 42.8358 482.867 37.1415 495.267 36.2386C496.368 36.1603 497.446 36.1182 498.475 36.1182" stroke="#94C8FA" stroke-width="0.674171" stroke-miterlimit="10"/>
    <path d="M442.29 72.7822C444.914 55.1093 454.738 39.3024 469.419 29.1177L475.246 25.0726" stroke="#94C8FA" stroke-width="0.674171" stroke-miterlimit="10"/>
    <path d="M430.745 123.195C458.922 121.268 486.207 112.51 510.237 97.6663L555.731 69.5679" stroke="#94C8FA" stroke-width="0.674171" stroke-miterlimit="10"/>
    <path d="M395.429 157.535L401.334 157.318C422.619 156.536 443.524 151.431 462.78 142.324L498.475 125.434" stroke="#94C8FA" stroke-width="0.674171" stroke-miterlimit="10"/>
    <path d="M464.55 141.487C491.829 144.244 519.103 136.245 540.574 119.198L550.175 111.571C560.366 103.481 572.513 98.2382 585.389 96.3782" stroke="#94C8FA" stroke-width="0.674171" stroke-miterlimit="10"/>
    <path d="M531.419 125.434C531.419 125.434 524.972 110.144 553.01 89.7387L570.563 77.1522" stroke="#94C8FA" stroke-width="0.674171" stroke-miterlimit="10"/>
    <path id="cp3" d="M332.105 249.644L369.239 218.933C382.018 208.369 395.929 199.249 410.712 191.743C440.918 176.412 473.687 166.769 507.384 163.302L529.047 161.075C560.751 157.812 592.787 161.153 623.136 170.874L648.165 178.892" stroke="#94C8FA" stroke-width="2.02251" stroke-miterlimit="10"/>
    <path id="cp4" d="M523.01 161.694L532.99 154.008C539.984 148.62 548.267 145.153 557.013 143.961C579.748 140.855 602.893 143.185 624.551 150.763L639.882 156.133" stroke="#94C8FA" stroke-width="2.02251" stroke-miterlimit="10"/>
    <path d="M559.349 143.642L564.279 138.604C575.481 127.167 589.765 119.24 605.391 115.779" stroke="#94C8FA" stroke-width="0.674171" stroke-miterlimit="10"/>
    <path d="M394.941 200.718C421.084 202.705 447.358 199.334 472.158 190.822L499.865 181.306" stroke="#94C8FA" stroke-width="0.674171" stroke-miterlimit="10"/>
    <path d="M459.096 194.795L469.546 196.161C493.238 199.34 517.316 198.19 540.599 192.773L575.066 184.755" stroke="#94C8FA" stroke-width="0.674171" stroke-miterlimit="10"/>
    <path d="M350.32 234.577L385.834 229.93C406.8 227.185 427.272 221.515 446.66 213.082L460.246 207.171" stroke="#94C8FA" stroke-width="0.674171" stroke-miterlimit="10"/>
    <path d="M333.249 272.686L428.861 243.997C442.476 239.91 456.327 236.642 470.334 234.21L581.747 214.864C588.772 213.642 595.844 212.751 602.947 212.191L666.361 207.171" stroke="#94C8FA" stroke-width="0.674171" stroke-miterlimit="10"/>
    <path d="M547.147 220.877C562.527 209.615 580.405 202.235 599.257 199.364L656.785 190.618" stroke="#94C8FA" stroke-width="0.674171" stroke-miterlimit="10"/>
    <path d="M531.269 194.946C536.313 182.817 547.87 174.66 560.986 173.974L565.88 173.715C587.484 172.578 609.123 175.046 629.914 181.011L638.504 183.473" stroke="#94C8FA" stroke-width="0.674171" stroke-miterlimit="10"/>
    <path id="cp6" d="M377.798 259.323L407.534 263.934C455.617 272.692 502.279 245.803 502.279 245.803" stroke="#94C8FA" stroke-width="2.02251" stroke-miterlimit="10"/>
    <path d="M464.55 307.363L466.975 303.343C484.979 273.541 514.444 252.461 548.46 245.033L605.397 232.609" stroke="#94C8FA" stroke-width="0.674171" stroke-miterlimit="10"/>
    <path d="M351.03 131.098L350.693 111.71C350.446 97.2871 352.987 82.955 358.181 69.5017L367.018 46.616C369.931 39.0616 375.024 32.5427 381.645 27.8836L406.204 10.59" stroke="#94C8FA" stroke-width="0.674171" stroke-miterlimit="10"/>
    <path d="M362.551 58.1972C359.475 45.707 362.449 32.4945 370.581 22.5204L383.3 6.93018" stroke="#94C8FA" stroke-width="0.674171" stroke-miterlimit="10"/>
    <path d="M392.714 77.694L400.937 74.4435C418.736 67.4009 434.17 55.4584 445.45 40.0006L458.765 21.7499" stroke="#94C8FA" stroke-width="0.674171" stroke-miterlimit="10"/>
    <path id="cp5" d="M341.508 157.535C362.401 148.602 379.135 132.085 388.338 111.306L393.69 99.2194" stroke="#94C8FA" stroke-width="2.02251" stroke-miterlimit="10"/>
    <path d="M377.401 129.708L391.986 115.345C397.596 109.819 401.888 103.054 404.175 95.5174C405.518 91.0992 406.216 86.4763 406.216 81.7872" stroke="#94C8FA" stroke-width="2.02251" stroke-miterlimit="10"/>
    <path d="M426.549 92.2007L431.666 90.6477C446.492 86.1452 460.366 78.946 472.58 69.4053L507.131 42.4385" stroke="#94C8FA" stroke-width="0.674171" stroke-miterlimit="10"/>
    <path d="M469.185 72.0539L480.874 69.7184C492.546 67.3828 503.832 63.41 514.39 57.9144L524.966 52.4066" stroke="#94C8FA" stroke-width="0.674171" stroke-miterlimit="10"/>
    <path d="M418.417 187.981L437.661 174.251C449.302 165.944 462.34 159.798 476.149 156.103L515.155 145.659C530.317 141.596 544.752 135.179 557.928 126.644L566.265 121.244" stroke="#94C8FA" stroke-width="0.674171" stroke-miterlimit="10"/>
    <path d="M366.891 220.877L368.715 218.265C381.464 199.972 397.295 184.038 415.498 171.157L428.867 161.694" stroke="#94C8FA" stroke-width="0.674171" stroke-miterlimit="10"/>
    <path d="M383.306 230.261L407.311 231.586C419.501 232.26 431.72 230.809 443.416 227.306L499.859 210.385" stroke="#94C8FA" stroke-width="0.674171" stroke-miterlimit="10"/>
    <path d="M479.321 216.543L490.054 217.946C504.789 219.866 519.765 217.855 533.472 212.113L559.343 201.272" stroke="#94C8FA" stroke-width="0.674171" stroke-miterlimit="10"/>
    <path d="M578.605 142.625L596.296 137.81C602.321 136.239 608.563 135.661 614.775 136.088L627.633 136.973" stroke="#94C8FA" stroke-width="2.02251" stroke-miterlimit="10"/>
    <path d="M664.177 225.542C664.177 225.542 675.12 203.987 705.764 201.272C736.415 198.557 768.468 200.417 768.468 200.417" stroke="#94C8FA" stroke-width="0.674171" stroke-miterlimit="10" stroke-dasharray="2.42 2.42"/>
    <path d="M565.675 102.127C565.675 102.127 563.713 80.7339 603.122 80.7339H670.31" stroke="#94C8FA" stroke-width="0.674171" stroke-miterlimit="10" stroke-dasharray="2.42 2.42"/>
    <path d="M480.501 39.6937C480.501 39.6937 488.338 20.7507 515.817 21.4911C543.295 22.2315 552.992 21.774 552.992 21.774" stroke="#94C8FA" stroke-width="0.674171" stroke-miterlimit="10"/>
    <path d="M375.144 259.052C375.144 261.032 376.745 262.634 378.725 262.634C380.706 262.634 382.307 261.032 382.307 259.052C382.307 257.072 380.706 255.47 378.725 255.47C376.745 255.47 375.144 257.072 375.144 259.052Z" fill="#94C8FA"/>
    <path d="M498.698 245.797C498.698 247.778 500.299 249.379 502.279 249.379C504.259 249.379 505.861 247.778 505.861 245.797C505.861 243.817 504.259 242.216 502.279 242.216C500.299 242.216 498.698 243.817 498.698 245.797Z" fill="#94C8FA"/>
    <path d="M496.278 209.958C496.278 211.938 497.879 213.54 499.859 213.54C501.84 213.54 503.441 211.938 503.441 209.958C503.441 207.978 501.84 206.376 499.859 206.376C497.879 206.376 496.278 207.978 496.278 209.958Z" fill="#94C8FA"/>
    <path d="M456.664 207.171C456.664 209.151 458.265 210.753 460.246 210.753C462.226 210.753 463.827 209.151 463.827 207.171C463.827 205.191 462.226 203.589 460.246 203.589C458.265 203.589 456.664 205.191 456.664 207.171Z" fill="#94C8FA"/>
    <path d="M500.269 184.887C502.247 184.887 503.85 183.284 503.85 181.306C503.85 179.328 502.247 177.724 500.269 177.724C498.29 177.724 496.687 179.328 496.687 181.306C496.687 183.284 498.29 184.887 500.269 184.887Z" fill="#94C8FA"/>
    <path d="M425.279 161.695C425.279 163.675 426.88 165.276 428.861 165.276C430.841 165.276 432.442 163.675 432.442 161.695C432.442 159.714 430.841 158.113 428.861 158.113C426.88 158.113 425.279 159.714 425.279 161.695Z" fill="#94C8FA"/>
    <path d="M636.301 155.741C636.301 157.722 637.902 159.323 639.882 159.323C641.863 159.323 643.464 157.722 643.464 155.741C643.464 153.761 641.863 152.16 639.882 152.16C637.902 152.16 636.301 153.761 636.301 155.741Z" fill="#94C8FA"/>
    <path d="M624.051 137.178C624.051 139.158 625.652 140.759 627.633 140.759C629.613 140.759 631.214 139.158 631.214 137.178C631.214 135.197 629.613 133.596 627.633 133.596C625.652 133.596 624.051 135.197 624.051 137.178Z" fill="#94C8FA"/>
    <path d="M494.893 125.434C494.893 127.414 496.494 129.015 498.475 129.015C500.455 129.015 502.056 127.414 502.056 125.434C502.056 123.453 500.455 121.852 498.475 121.852C496.494 121.852 494.893 123.453 494.893 125.434Z" fill="#94C8FA"/>
    <path d="M534.465 63.663C534.465 65.6433 536.066 67.2445 538.046 67.2445C540.027 67.2445 541.628 65.6433 541.628 63.663C541.628 61.6826 540.027 60.0814 538.046 60.0814C536.066 60.0814 534.465 61.6826 534.465 63.663Z" fill="#94C8FA"/>
    <path d="M503.549 42.4446C503.549 44.4249 505.15 46.0261 507.131 46.0261C509.111 46.0261 510.712 44.4249 510.712 42.4446C510.712 40.4642 509.111 38.863 507.131 38.863C505.15 38.863 503.549 40.4642 503.549 42.4446Z" fill="#94C8FA"/>
    <path d="M521.391 52.4067C521.391 54.3871 522.992 55.9883 524.972 55.9883C526.953 55.9883 528.554 54.3871 528.554 52.4067C528.554 50.4263 526.953 48.8252 524.972 48.8252C522.992 48.8252 521.391 50.4263 521.391 52.4067Z" fill="#94C8FA"/>
    <path d="M494.893 36.1122C494.893 38.0925 496.494 39.6937 498.475 39.6937C500.455 39.6937 502.056 38.0925 502.056 36.1122C502.056 34.1318 500.455 32.5306 498.475 32.5306C496.494 32.5306 494.893 34.1318 494.893 36.1122Z" fill="#94C8FA"/>
    <path d="M471.665 25.0787C471.665 27.0591 473.266 28.6603 475.246 28.6603C477.226 28.6603 478.828 27.0591 478.828 25.0787C478.828 23.0983 477.226 21.4972 475.246 21.4972C473.266 21.4972 471.665 23.0983 471.665 25.0787Z" fill="#94C8FA"/>
    <path d="M455.184 22.0931C455.184 24.0735 456.785 25.6747 458.765 25.6747C460.745 25.6747 462.347 24.0735 462.347 22.0931C462.347 20.1128 460.745 18.5116 458.765 18.5116C456.785 18.5116 455.184 20.1128 455.184 22.0931Z" fill="#94C8FA"/>
    <path d="M445.306 19.5588C445.306 21.5392 446.907 23.1404 448.887 23.1404C450.868 23.1404 452.469 21.5392 452.469 19.5588C452.469 17.5785 450.868 15.9773 448.887 15.9773C446.907 15.9773 445.306 17.5785 445.306 19.5588Z" fill="#94C8FA"/>
    <path d="M430.709 15.4176C430.709 17.398 432.31 18.9991 434.29 18.9991C436.271 18.9991 437.872 17.398 437.872 15.4176C437.872 13.4372 436.271 11.8361 434.29 11.8361C432.31 11.8361 430.709 13.4372 430.709 15.4176Z" fill="#94C8FA"/>
    <path d="M406.21 92.2008C411.961 92.2008 416.623 87.5385 416.623 81.7873C416.623 76.0361 411.961 71.3738 406.21 71.3738C400.459 71.3738 395.796 76.0361 395.796 81.7873C395.796 87.5385 400.459 92.2008 406.21 92.2008Z" fill="#94C8FA"/>
    <path d="M390.108 99.2195C390.108 101.2 391.709 102.801 393.689 102.801C395.67 102.801 397.271 101.2 397.271 99.2195C397.271 97.2391 395.67 95.6379 393.689 95.6379C391.709 95.6379 390.108 97.2391 390.108 99.2195Z" fill="#94C8FA"/>
    <path d="M566.981 77.1523C566.981 79.1327 568.583 80.7339 570.563 80.7339C572.543 80.7339 574.145 79.1327 574.145 77.1523C574.145 75.172 572.543 73.5708 570.563 73.5708C568.583 73.5708 566.981 75.172 566.981 77.1523Z" fill="#94C8FA"/>
    <path d="M549.694 21.8402C549.694 23.8206 551.295 25.4217 553.275 25.4217C555.256 25.4217 556.857 23.8206 556.857 21.8402C556.857 19.8598 555.256 18.2587 553.275 18.2587C551.295 18.2587 549.694 19.8598 549.694 21.8402Z" fill="#94C8FA"/>
    <path d="M562.93 121.238C562.93 123.219 564.532 124.82 566.512 124.82C568.492 124.82 570.093 123.219 570.093 121.238C570.093 119.258 568.492 117.657 566.512 117.657C564.532 117.657 562.93 119.258 562.93 121.238Z" fill="#94C8FA"/>
    <path d="M679.195 221.991C679.195 223.953 680.784 225.542 682.746 225.542C684.709 225.542 686.298 223.953 686.298 221.991C686.298 220.028 684.709 218.439 682.746 218.439C680.784 218.439 679.195 220.028 679.195 221.991Z" fill="#94C8FA"/>
    <path d="M601.846 232.609C601.846 234.571 603.435 236.16 605.397 236.16C607.359 236.16 608.949 234.571 608.949 232.609C608.949 230.646 607.359 229.057 605.397 229.057C603.435 229.057 601.846 230.646 601.846 232.609Z" fill="#94C8FA"/>
    <path d="M555.797 200.417C555.797 202.379 557.386 203.969 559.349 203.969C561.311 203.969 562.9 202.379 562.9 200.417C562.9 198.455 561.311 196.866 559.349 196.866C557.386 196.866 555.797 198.455 555.797 200.417Z" fill="#94C8FA"/>
    <path d="M653.233 191.334C653.233 193.296 654.822 194.885 656.785 194.885C658.747 194.885 660.336 193.296 660.336 191.334C660.336 189.372 658.747 187.783 656.785 187.783C654.822 187.783 653.233 189.372 653.233 191.334Z" fill="#94C8FA"/>
    <path d="M634.952 183.551C634.952 185.513 636.542 187.102 638.504 187.102C640.466 187.102 642.055 185.513 642.055 183.551C642.055 181.589 640.466 180 638.504 180C636.542 180 634.952 181.589 634.952 183.551Z" fill="#94C8FA"/>
    <path d="M637.107 285.609C640.578 285.609 643.392 282.796 643.392 279.325C643.392 275.855 640.578 273.041 637.107 273.041C633.637 273.041 630.823 275.855 630.823 279.325C630.823 282.796 633.637 285.609 637.107 285.609Z" fill="#94C8FA"/>
    <path d="M667.816 213.345C671.194 212.547 673.286 209.163 672.488 205.785C671.691 202.407 668.307 200.315 664.929 201.112C661.551 201.909 659.459 205.294 660.256 208.672C661.053 212.05 664.438 214.142 667.816 213.345Z" fill="#94C8FA"/>
    <path d="M648.159 184.755C651.63 184.755 654.443 181.941 654.443 178.471C654.443 175 651.63 172.186 648.159 172.186C644.688 172.186 641.875 175 641.875 178.471C641.875 181.941 644.688 184.755 648.159 184.755Z" fill="#94C8FA"/>
    <path d="M576.067 191.2C579.493 190.644 581.82 187.416 581.264 183.99C580.707 180.564 577.479 178.238 574.054 178.794C570.628 179.35 568.301 182.578 568.857 186.004C569.414 189.43 572.642 191.756 576.067 191.2Z" fill="#94C8FA"/>
    <path d="M614.475 117.919C615.665 112.874 612.541 107.82 607.497 106.63C602.453 105.439 597.399 108.563 596.208 113.607C595.018 118.652 598.142 123.706 603.186 124.896C608.23 126.087 613.284 122.963 614.475 117.919Z" fill="#94C8FA"/>
    <path d="M586.343 102.543C589.721 101.746 591.813 98.3613 591.016 94.9835C590.218 91.6056 586.834 89.5136 583.456 90.3108C580.078 91.1081 577.986 94.4927 578.783 97.8706C579.58 101.248 582.965 103.34 586.343 102.543Z" fill="#94C8FA"/>
    <path d="M668.926 85.1762C671.379 85.1762 673.368 83.1873 673.368 80.7339C673.368 78.2805 671.379 76.2916 668.926 76.2916C666.472 76.2916 664.483 78.2805 664.483 80.7339C664.483 83.1873 666.472 85.1762 668.926 85.1762Z" fill="#94C8FA"/>
    <path d="M555.731 75.8522C559.202 75.8522 562.015 73.0386 562.015 69.5679C562.015 66.0972 559.202 63.2837 555.731 63.2837C552.261 63.2837 549.447 66.0972 549.447 69.5679C549.447 73.0386 552.261 75.8522 555.731 75.8522Z" fill="#94C8FA"/>
    <path d="M399.926 11.3725C399.926 14.8397 402.737 17.6567 406.21 17.6567C409.683 17.6567 412.494 14.8457 412.494 11.3725C412.494 7.89931 409.683 5.08826 406.21 5.08826C402.737 5.08826 399.926 7.89931 399.926 11.3725Z" fill="#94C8FA"/>
    <path d="M383.306 13.2145C386.777 13.2145 389.59 10.4009 389.59 6.93023C389.59 3.45954 386.777 0.645996 383.306 0.645996C379.835 0.645996 377.022 3.45954 377.022 6.93023C377.022 10.4009 379.835 13.2145 383.306 13.2145Z" fill="#94C8FA"/>
    <path d="M370.738 16.8743C374.208 16.8743 377.022 14.0607 377.022 10.59C377.022 7.11933 374.208 4.30579 370.738 4.30579C367.267 4.30579 364.453 7.11933 364.453 10.59C364.453 14.0607 367.267 16.8743 370.738 16.8743Z" fill="#94C8FA"/>
    <path d="M512.554 280.631C512.554 284.099 515.365 286.916 518.838 286.916C522.312 286.916 515.365 274.347 518.838 274.347C515.365 274.347 512.554 277.158 512.554 280.631Z" fill="#94C8FA"/>
  </g>
  <defs>
    <clipPath id="clip0_220_49">
      <rect width="1855.22" height="877.06" fill="white" transform="translate(-595 0.645996)"/>
    </clipPath>
  </defs>
</svg>
